<?xml version="1.0" encoding="UTF-8"?>
<svg width="24px" height="19px" viewBox="0 0 24 19" version="1.1" xmlns="http://www.w3.org/2000/svg" xmlns:xlink="http://www.w3.org/1999/xlink">
    <!-- Generator: Sketch 52.2 (67145) - http://www.bohemiancoding.com/sketch -->
    <title>Logo/Social/Email</title>
    <desc>Created with Sketch.</desc>
    <g id="Desktop" stroke="none" stroke-width="1" fill="none" fill-rule="evenodd">
        <g id="Desktop-About" transform="translate(-1405.000000, -2082.000000)">
            <g id="Footer" transform="translate(0.000000, 1599.000000)">
                <g id="Group" transform="translate(168.000000, 466.000000)">
                    <g id="Logo/Social/Email" transform="translate(1231.000000, 11.000000)">
                        <rect id="Rectangle" fill-rule="nonzero" x="0" y="0" width="35" height="31"></rect>
                        <g id="if_contact_126567" stroke-width="1" fill-rule="evenodd" transform="translate(6.000000, 6.971429)" fill="#515762">
                            <path d="M11.6666667,11.6666667 C11.27875,11.6666667 10.9375,11.5295833 10.2083333,11.1766667 L0,5.83333333 L0,16.0416667 C0,16.84375 0.65625,17.5 1.45833333,17.5 L21.875,17.5 C22.6770833,17.5 23.3333333,16.84375 23.3333333,16.0416667 L23.3333333,5.83333333 L13.125,11.1766667 C12.3958333,11.5295833 12.0545833,11.6666667 11.6666667,11.6666667 Z M21.875,0 L1.45833333,0 C0.65625,0 0,0.65625 0,1.45833333 L0,2.56375 L11.6666667,8.69604167 L23.3333333,2.56375 L23.3333333,1.45833333 C23.3333333,0.65625 22.6770833,0 21.875,0 Z" id="Shape"></path>
                        </g>
                    </g>
                </g>
            </g>
        </g>
    </g>
</svg>