<?xml version="1.0" encoding="UTF-8"?>
<svg width="25px" height="25px" viewBox="0 0 25 25" version="1.1" xmlns="http://www.w3.org/2000/svg" xmlns:xlink="http://www.w3.org/1999/xlink">
    <!-- Generator: Sketch 52.2 (67145) - http://www.bohemiancoding.com/sketch -->
    <title>Logo/Social/Git</title>
    <desc>Created with Sketch.</desc>
    <g id="Desktop" stroke="none" stroke-width="1" fill="none" fill-rule="evenodd">
        <g id="Desktop-About" transform="translate(-1317.000000, -2079.000000)">
            <g id="Footer" transform="translate(0.000000, 1599.000000)">
                <g id="Group" transform="translate(168.000000, 466.000000)">
                    <g id="Logo/Social/Git" transform="translate(1144.000000, 11.000000)">
                        <rect id="Rectangle-Copy-2" fill-rule="nonzero" x="0" y="0" width="35" height="31"></rect>
                        <g id="if_github_317712" stroke-width="1" fill-rule="evenodd" transform="translate(5.000000, 3.000000)" fill="#515762">
                            <path d="M12.5023437,0 C5.6015625,0 0.00625,5.5953125 0.00625,12.4976563 C0.00625,18.01875 3.5859375,22.703125 8.553125,24.35625 C9.178125,24.4703125 9.375,24.1 9.375,23.76875 C9.375,23.471875 9.38125,22.6421875 9.375,21.5992188 C5.89921875,22.3546875 5.17890625,19.953125 5.17890625,19.953125 C4.6109375,18.509375 3.7921875,18.125 3.7921875,18.125 C2.6578125,17.35 3.87734375,17.3648438 3.87734375,17.3648438 C5.13125,17.453125 5.7921875,18.653125 5.7921875,18.653125 C6.90703125,20.5617188 8.71640625,20.0101563 9.428125,19.6914063 C9.5421875,18.8835938 9.865625,18.3328125 10.2226562,18.0203125 C7.44765625,17.7046875 4.53046875,16.6328125 4.53046875,11.84375 C4.53046875,10.4789063 5.0171875,9.3640625 5.81640625,8.490625 C5.6875,8.175 5.2578125,6.90390625 5.9390625,5.1828125 C5.9390625,5.1828125 6.98828125,4.846875 9.375,6.46484375 C10.371875,6.1875 11.4414063,6.04921875 12.5039062,6.04453125 C13.565625,6.04921875 14.634375,6.1875 15.6328125,6.46484375 C18.0195312,4.84765625 19.0671875,5.1828125 19.0671875,5.1828125 C19.7484375,6.90390625 19.3195312,8.175 19.1914062,8.490625 C19.990625,9.3640625 20.4757812,10.4789063 20.4757812,11.84375 C20.4757812,16.6453125 17.5539062,17.7015625 14.7695312,18.0101563 C15.2179687,18.396875 15.625,19.146875 15.625,20.3125 C15.625,21.875 15.625,23.3609375 15.625,23.771875 C15.625,24.10625 15.8265625,24.4757813 16.4609375,24.3546875 C21.4234375,22.6992188 25,18.0171875 25,12.4976563 C25,5.5953125 19.4046875,0 12.5023437,0 Z" id="Path"></path>
                        </g>
                    </g>
                </g>
            </g>
        </g>
    </g>
</svg>