<?xml version="1.0" encoding="UTF-8"?>
<svg width="40px" height="40px" viewBox="0 0 40 40" version="1.1" xmlns="http://www.w3.org/2000/svg" xmlns:xlink="http://www.w3.org/1999/xlink">
    <!-- Generator: Sketch 52.4 (67378) - http://www.bohemiancoding.com/sketch -->
    <title>Logo/Small</title>
    <desc>Created with Sketch.</desc>
    <defs>
        <polygon id="path-1" points="0 0.0553459119 39.9442532 0.0553459119 39.9442532 39.7484025 0 39.7484025"></polygon>
    </defs>
    <g id="Logo/Small" stroke="none" stroke-width="1" fill="none" fill-rule="evenodd">
        <circle id="Oval" fill="#FFFFFF" fill-rule="nonzero" cx="20" cy="20" r="19"></circle>
        <g id="Group-8">
            <path d="M16.1187089,7.41355975 C15.446557,7.61205031 14.7966835,7.86387421 14.1736456,8.16324528 L14.1736456,32.0143145 C14.7966835,32.3136855 15.446557,32.5655094 16.1187089,32.764 L16.1187089,7.41355975 Z" id="Fill-1" fill="#589DA1"></path>
            <path d="M12.9077722,31.3154969 L12.9077722,8.86191195 C9.17207595,11.1954969 6.67435443,15.3607799 6.67435443,20.0888302 C6.67435443,24.8166289 9.17207595,28.9819119 12.9077722,31.3154969" id="Fill-3" fill="#589DA1"></path>
            <g id="Group-7" transform="translate(0.000000, 0.196226)">
                <mask id="mask-2" fill="white">
                    <use xlink:href="#path-1"></use>
                </mask>
                <g id="Clip-6"></g>
                <path d="M33.4032405,30.0520503 L27.805519,30.0520503 L27.805519,30.0588428 L26.4731139,30.0588428 L26.4748861,4.42412579 C26.9300759,4.6130566 27.3736203,4.82337107 27.8072911,5.04978616 L27.8057722,28.7280252 L34.3207089,28.7280252 C34.0356456,29.1846289 33.7295696,29.6261384 33.4032405,30.0520503 Z M21.0604557,36.6359497 L21.0604557,3.16777358 C22.2483038,3.24299371 23.4032405,3.43972327 24.5115949,3.74664151 L24.5115949,32.0120503 L31.6452658,32.0120503 C28.8586835,34.6651321 25.1584304,36.3768302 21.0604557,36.6359497 Z M19.6966582,36.652805 C10.519443,36.5982138 3.09640506,29.1159497 3.09640506,19.8925535 C3.09640506,10.6691572 10.519443,3.18664151 19.6966582,3.13230189 L19.6966582,36.652805 Z M19.9721013,0.0553207547 C8.94172152,0.0553207547 -5.06329114e-05,8.94085535 -5.06329114e-05,19.9018616 C-5.06329114e-05,30.8628679 8.94172152,39.7484025 19.9721013,39.7484025 C31.002481,39.7484025 39.9442532,30.8628679 39.9442532,19.9018616 C39.9442532,8.94085535 31.002481,0.0553207547 19.9721013,0.0553207547 Z" id="Fill-5" fill="#515762" mask="url(#mask-2)"></path>
            </g>
        </g>
    </g>
</svg>