<?xml version="1.0" encoding="UTF-8"?>
<svg width="31px" height="23px" viewBox="0 0 31 23" version="1.1" xmlns="http://www.w3.org/2000/svg" xmlns:xlink="http://www.w3.org/1999/xlink">
    <!-- Generator: Sketch 52.2 (67145) - http://www.bohemiancoding.com/sketch -->
    <title>Logo/Social/Twitter</title>
    <desc>Created with Sketch.</desc>
    <g id="Desktop" stroke="none" stroke-width="1" fill="none" fill-rule="evenodd">
        <g id="Desktop-About" transform="translate(-1140.000000, -2081.000000)">
            <g id="Footer" transform="translate(0.000000, 1599.000000)">
                <g id="Group" transform="translate(168.000000, 466.000000)">
                    <g id="Logo/Social/Twitter" transform="translate(970.000000, 12.000000)">
                        <rect id="Rectangle" fill-rule="nonzero" x="0" y="0" width="35" height="31"></rect>
                        <path d="M32.3884146,7.16402439 C31.2841463,7.59878049 30.0957317,7.89203833 28.8487805,8.02327526 C30.1219512,7.34818815 31.0981707,6.27885017 31.5585366,5.00320557 C30.3676829,5.62914634 29.0493902,6.08334495 27.645122,6.32853659 C26.5213415,5.26783972 24.9195122,4.60463415 23.1469512,4.60463415 C19.7439024,4.60463415 16.9847561,7.04844948 16.9847561,10.0631185 C16.9847561,10.4903136 17.0390244,10.9067073 17.1445122,11.306899 C12.022561,11.0789895 7.48109756,8.9062892 4.44146341,5.60376307 C3.91097561,6.40954704 3.60731707,7.34710801 3.60731707,8.34839721 C3.60731707,10.2418815 4.69512195,11.9128571 6.34878049,12.8914634 C5.33902439,12.8628397 4.38841463,12.617108 3.55731707,12.2082753 C3.55670732,12.2309582 3.55670732,12.2541812 3.55670732,12.2774042 C3.55670732,14.9215854 5.68109756,17.12723 8.50060976,17.6294948 C7.98353659,17.7537108 7.43902439,17.8206794 6.87682927,17.8206794 C6.47926829,17.8206794 6.09329268,17.7866551 5.71707317,17.7223868 C6.50182927,19.8907666 8.77743902,21.4693902 11.4737805,21.5131359 C9.36463415,22.9772648 6.70792683,23.8500174 3.82012195,23.8500174 C3.32317073,23.8500174 2.83231707,23.8240941 2.35,23.7733275 C5.07804878,25.3227875 8.31707317,26.225784 11.7969512,26.225784 C23.1329268,26.225784 29.3310976,17.9087108 29.3310976,10.6955401 C29.3310976,10.4589895 29.3256098,10.2229791 29.3140244,9.98858885 C30.5176829,9.22060976 31.5628049,8.25874564 32.3884146,7.16402439 Z" id="Path" fill="#515762" fill-rule="evenodd"></path>
                    </g>
                </g>
            </g>
        </g>
    </g>
</svg>