<?xml version="1.0" encoding="utf-8"?>
<!-- Generator: Adobe Illustrator 22.1.0, SVG Export Plug-In . SVG Version: 6.00 Build 0)  -->
<svg version="1.1" id="Layer_1" xmlns="http://www.w3.org/2000/svg" xmlns:xlink="http://www.w3.org/1999/xlink" x="0px" y="0px"
	 viewBox="0 0 246.6 67" style="enable-background:new 0 0 246.6 67;" xml:space="preserve">
<style type="text/css">
	.st0{fill:#3492CF;}
	.st1{fill:#7C7F82;}
	.st2{fill-rule:evenodd;clip-rule:evenodd;fill:#3492CF;}
</style>
<g>
	<g>
		<g>
			<path class="st0" d="M71.8,13c-2-1.6-4.8-2.5-8.2-2.5h-9.4V41h4.4V29.4h5c3.5,0,6.2-0.8,8.2-2.5c2-1.7,3.1-4,3.1-7
				C74.8,17,73.8,14.7,71.8,13z M68.7,23.8c-1.2,1-2.9,1.5-5.2,1.5h-5V14.5h5c2.2,0,4,0.5,5.2,1.5c1.2,0.9,1.7,2.2,1.7,3.9
				C70.4,21.6,69.9,22.9,68.7,23.8z"/>
			<polygon class="st0" points="76.4,10.5 76.4,14.6 86.4,14.6 86.4,41 90.7,41 90.7,14.6 100.7,14.6 100.7,10.5 			"/>
		</g>
		<path class="st1" d="M104.1,40.3V18.8h1.4h1.4V21l0.2-0.3c1.4-1.7,3.3-2.5,5.7-2.5c2.7,0,4.8,0.8,6.3,2.5c0.4,0.5,0.8,1,1.1,1.6
			c0.3-0.6,0.6-1.2,1-1.6c1.4-1.7,3.3-2.5,5.8-2.5c2.8,0,4.9,0.9,6.4,2.6c1.5,1.7,2.3,4.1,2.3,7.1v12.4h-1.4H133V27.6
			c0-2.1-0.5-3.8-1.5-5c-1-1.2-2.5-1.8-4.3-1.8c-1.9,0-3.3,0.6-4.3,1.8c-1,1.2-1.5,2.9-1.5,5.2v12.6H120h-1.4V27.6
			c0-2.2-0.5-3.8-1.6-5c-1-1.2-2.5-1.8-4.3-1.8c-1.9,0-3.3,0.6-4.3,1.8c-1,1.2-1.5,2.9-1.5,5.2v12.6h-1.4H104.1z"/>
		<path class="st1" d="M140.6,40.3V18.8h1.4h1.4v21.5H142H140.6z M140.6,13.4h2.7v2.7h-2.7V13.4z"/>
		<path class="st1" d="M158.4,18.2c3,0,5.3,0.9,7,2.7c1.7,1.8,2.5,4.4,2.5,7.6v11.7h-1.4h-1.4V28.5c0-2.4-0.6-4.4-1.8-5.7
			c-1.2-1.4-2.8-2.1-4.9-2.1c-2.2,0-3.8,0.7-5,2.1c-1.2,1.4-1.7,3.4-1.7,6v11.5h-1.4H149V29c0-1.5,0.2-3,0.6-4.3
			c0.4-1.3,1-2.5,1.7-3.4c0.8-1,1.8-1.7,2.9-2.3C155.4,18.5,156.8,18.2,158.4,18.2z"/>
		<path class="st1" d="M195.1,29.6c0,1.4-0.3,2.8-0.8,4c-0.6,1.2-1.3,2.4-2.1,3.4c-1,1.2-2.3,2.2-3.8,2.9c-1.5,0.7-3.1,1.1-4.8,1.1
			c-0.2,0-0.3,0-0.5,0c-0.2,0-0.3,0-0.4,0c-2.8-0.1-5.3-1.3-7.4-3.4c-2.1-2.1-3.1-4.7-3.1-7.9c0-3.2,1.1-5.8,3.2-8
			c2.2-2.2,4.8-3.3,7.9-3.3c3.3,0,6,1.1,8.1,3.3l0.8,0.9V11.2h1.4h1.4L195.1,29.6z M183.6,20.7c-2.4,0-4.5,0.9-6.2,2.6
			c-1.7,1.7-2.5,3.8-2.5,6.3c0,2.5,0.8,4.6,2.5,6.3c1.7,1.7,3.7,2.6,6.2,2.6c2.4,0,4.5-0.9,6.2-2.6c1.7-1.7,2.5-3.8,2.5-6.3
			c0-2.5-0.8-4.6-2.5-6.3C188.1,21.6,186,20.7,183.6,20.7z"/>
		<path class="st1" d="M219.1,31l2.6,0c-0.1,0.6-0.2,1.2-0.4,1.8c-0.7,2.3-1.9,4.2-3.8,5.7c-2.4,2-5.2,2.8-8.2,2.4
			c-3.1-0.3-5.6-1.7-7.5-4.2c-2-2.5-2.8-5.2-2.5-8.3c0.3-3.1,1.7-5.6,4.2-7.5c2.4-2,5.2-2.8,8.2-2.4c3.1,0.3,5.6,1.7,7.6,4.2
			c0.2,0.3,0.4,0.6,0.6,0.8l-15.2,12.3c1.4,1.4,3.1,2.3,5.1,2.6c2.4,0.3,4.5-0.3,6.3-1.8c1.3-1.1,2.2-2.3,2.7-3.8
			C218.9,32.2,219.1,31.6,219.1,31z M216.1,23.4c-1.4-1.3-3-2-4.9-2.3c-2.3-0.3-4.4,0.3-6.3,1.8c-1.8,1.5-2.8,3.4-3.1,5.8
			c-0.1,1.8,0.2,3.6,1.2,5.2L216.1,23.4z"/>
		<path class="st1" d="M226.6,40.3V18.8h1.4h1.4v3.1c0.2-0.5,0.5-1,0.8-1.3c1.1-1.4,2.9-2.2,5.3-2.3v2.9c-1.8,0.1-3.3,0.7-4.4,1.8
			c-1.2,1.2-1.8,2.9-1.8,5.1v12.3H228H226.6z"/>
	</g>
	<g>
		<path class="st2" d="M9.7,15.9l5.9-5.4c-1.7,8.4,3.1,12.9,23.7,5.9C31.8,21.4,10.1,31.1,9.7,15.9z"/>
		<path class="st2" d="M26.5,11.1c1.9,0,2.9,1.4,2.2,3.2c-0.7,1.8-2.8,3.2-4.8,3.2c-1.9,0-2.9-1.4-2.2-3.2
			C22.5,12.6,24.6,11.1,26.5,11.1z"/>
		<path class="st2" d="M11.6,43.7c0,0,6.4-1.4,9.9-2.3c-2.3-6.8,4.4-17,26.5-17C37.4,22.2,12.9,21,11.6,43.7z"/>
	</g>
	<g>
		<path class="st1" d="M58.9,50.8c0,0.8-0.3,1.5-0.8,1.9c-0.6,0.4-1.4,0.7-2.4,0.7h-1v3.2h-0.9v-8.2h2.1
			C57.9,48.5,58.9,49.3,58.9,50.8z M54.7,52.6h0.9c0.8,0,1.4-0.1,1.8-0.4c0.4-0.3,0.6-0.7,0.6-1.3c0-0.5-0.2-0.9-0.5-1.2
			c-0.4-0.3-0.9-0.4-1.7-0.4h-1.1V52.6z"/>
		<path class="st1" d="M64.7,56.7c-0.9,0-1.6-0.3-2.1-0.8c-0.5-0.6-0.8-1.3-0.8-2.3c0-1,0.2-1.8,0.7-2.3s1.1-0.9,2-0.9
			c0.8,0,1.4,0.3,1.8,0.8s0.7,1.2,0.7,2v0.6h-4.2c0,0.7,0.2,1.3,0.5,1.6c0.3,0.4,0.8,0.6,1.5,0.6c0.7,0,1.3-0.1,2-0.4v0.8
			c-0.3,0.1-0.6,0.2-0.9,0.3C65.5,56.7,65.2,56.7,64.7,56.7z M64.5,51.2c-0.5,0-0.9,0.2-1.2,0.5C63,52,62.9,52.4,62.8,53H66
			c0-0.6-0.1-1-0.4-1.3C65.3,51.3,65,51.2,64.5,51.2z"/>
		<path class="st1" d="M73.1,50.4c0.3,0,0.5,0,0.7,0.1l-0.1,0.9c-0.3-0.1-0.5-0.1-0.7-0.1c-0.5,0-0.9,0.2-1.3,0.6
			c-0.4,0.4-0.5,0.9-0.5,1.5v3.3h-0.9v-6.1H71l0.1,1.1h0c0.2-0.4,0.5-0.7,0.8-0.9C72.3,50.5,72.7,50.4,73.1,50.4z"/>
		<path class="st1" d="M80.6,54.9c0,0.6-0.2,1-0.6,1.3c-0.4,0.3-1,0.5-1.8,0.5c-0.8,0-1.4-0.1-1.9-0.4v-0.9c0.3,0.1,0.6,0.3,0.9,0.4
			c0.3,0.1,0.7,0.1,1,0.1c0.5,0,0.9-0.1,1.1-0.2s0.4-0.4,0.4-0.7c0-0.2-0.1-0.4-0.3-0.6c-0.2-0.2-0.6-0.4-1.2-0.6
			c-0.6-0.2-1-0.4-1.2-0.6c-0.2-0.2-0.4-0.3-0.5-0.5c-0.1-0.2-0.2-0.4-0.2-0.7c0-0.5,0.2-0.9,0.6-1.2s1-0.4,1.7-0.4
			c0.7,0,1.3,0.1,1.9,0.4l-0.3,0.8c-0.6-0.3-1.2-0.4-1.7-0.4c-0.4,0-0.8,0.1-1,0.2c-0.2,0.1-0.3,0.3-0.3,0.6c0,0.2,0,0.3,0.1,0.4
			c0.1,0.1,0.2,0.2,0.4,0.3s0.5,0.3,1.1,0.5c0.7,0.3,1.2,0.5,1.5,0.8C80.5,54.2,80.6,54.5,80.6,54.9z"/>
		<path class="st1" d="M89.1,53.6c0,1-0.3,1.8-0.8,2.3s-1.2,0.8-2.1,0.8c-0.5,0-1-0.1-1.5-0.4s-0.8-0.6-1-1.1
			c-0.2-0.5-0.3-1-0.3-1.7c0-1,0.2-1.8,0.7-2.3c0.5-0.6,1.2-0.8,2.1-0.8c0.9,0,1.5,0.3,2,0.9C88.8,51.8,89.1,52.6,89.1,53.6z
			 M84.4,53.6c0,0.8,0.2,1.4,0.5,1.8c0.3,0.4,0.8,0.6,1.4,0.6c0.6,0,1.1-0.2,1.4-0.6s0.5-1,0.5-1.8c0-0.8-0.2-1.4-0.5-1.8
			s-0.8-0.6-1.4-0.6c-0.6,0-1.1,0.2-1.4,0.6C84.6,52.2,84.4,52.8,84.4,53.6z"/>
		<path class="st1" d="M96.6,56.6v-4c0-0.5-0.1-0.9-0.3-1.1s-0.6-0.4-1.1-0.4c-0.6,0-1.1,0.2-1.4,0.5c-0.3,0.3-0.4,0.9-0.4,1.7v3.2
			h-0.9v-6.1h0.8l0.2,0.8h0c0.2-0.3,0.5-0.5,0.8-0.7c0.3-0.2,0.7-0.2,1.1-0.2c0.7,0,1.3,0.2,1.7,0.5c0.4,0.4,0.6,0.9,0.6,1.7v4H96.6
			z"/>
		<path class="st1" d="M104.9,56.6l-0.2-0.9h0c-0.3,0.4-0.6,0.6-0.9,0.8c-0.3,0.1-0.7,0.2-1.1,0.2c-0.6,0-1.1-0.2-1.4-0.5
			c-0.3-0.3-0.5-0.8-0.5-1.3c0-1.2,1-1.9,3-1.9l1,0v-0.4c0-0.5-0.1-0.8-0.3-1.1s-0.5-0.3-1-0.3c-0.5,0-1.1,0.2-1.7,0.5l-0.3-0.7
			c0.3-0.2,0.6-0.3,1-0.4s0.7-0.1,1.1-0.1c0.7,0,1.3,0.2,1.6,0.5c0.4,0.3,0.5,0.8,0.5,1.6v4.2H104.9z M102.8,56c0.6,0,1-0.2,1.4-0.5
			c0.3-0.3,0.5-0.8,0.5-1.3v-0.6l-0.9,0c-0.7,0-1.3,0.1-1.6,0.3c-0.3,0.2-0.5,0.5-0.5,0.9c0,0.3,0.1,0.6,0.3,0.8S102.5,56,102.8,56z
			"/>
		<path class="st1" d="M110.2,56.6h-0.9v-8.7h0.9V56.6z"/>
		<path class="st1" d="M121.2,56.6h-0.9v-7.3h-2.6v-0.8h6.1v0.8h-2.6V56.6z"/>
		<path class="st1" d="M129.3,50.4c0.3,0,0.5,0,0.7,0.1l-0.1,0.9c-0.3-0.1-0.5-0.1-0.7-0.1c-0.5,0-0.9,0.2-1.3,0.6
			c-0.4,0.4-0.5,0.9-0.5,1.5v3.3h-0.9v-6.1h0.8l0.1,1.1h0c0.2-0.4,0.5-0.7,0.8-0.9C128.6,50.5,129,50.4,129.3,50.4z"/>
		<path class="st1" d="M136.7,56.6l-0.2-0.9h0c-0.3,0.4-0.6,0.6-0.9,0.8c-0.3,0.1-0.7,0.2-1.1,0.2c-0.6,0-1.1-0.2-1.4-0.5
			c-0.3-0.3-0.5-0.8-0.5-1.3c0-1.2,1-1.9,3-1.9l1,0v-0.4c0-0.5-0.1-0.8-0.3-1.1s-0.5-0.3-1-0.3c-0.5,0-1.1,0.2-1.7,0.5l-0.3-0.7
			c0.3-0.2,0.6-0.3,1-0.4s0.7-0.1,1.1-0.1c0.7,0,1.3,0.2,1.6,0.5c0.4,0.3,0.5,0.8,0.5,1.6v4.2H136.7z M134.6,56c0.6,0,1-0.2,1.4-0.5
			c0.3-0.3,0.5-0.8,0.5-1.3v-0.6l-0.9,0c-0.7,0-1.3,0.1-1.6,0.3c-0.3,0.2-0.5,0.5-0.5,0.9c0,0.3,0.1,0.6,0.3,0.8S134.2,56,134.6,56z
			"/>
		<path class="st1" d="M140.9,48.8c0-0.2,0.1-0.4,0.2-0.5c0.1-0.1,0.2-0.1,0.4-0.1c0.1,0,0.3,0.1,0.4,0.2c0.1,0.1,0.2,0.3,0.2,0.5
			c0,0.2-0.1,0.4-0.2,0.5c-0.1,0.1-0.2,0.2-0.4,0.2c-0.2,0-0.3-0.1-0.4-0.2C141,49.2,140.9,49.1,140.9,48.8z M141.9,56.6H141v-6.1
			h0.9V56.6z"/>
		<path class="st1" d="M149.8,56.6v-4c0-0.5-0.1-0.9-0.3-1.1s-0.6-0.4-1.1-0.4c-0.6,0-1.1,0.2-1.4,0.5c-0.3,0.3-0.4,0.9-0.4,1.7v3.2
			h-0.9v-6.1h0.8l0.2,0.8h0c0.2-0.3,0.5-0.5,0.8-0.7c0.3-0.2,0.7-0.2,1.1-0.2c0.7,0,1.3,0.2,1.7,0.5c0.4,0.4,0.6,0.9,0.6,1.7v4
			H149.8z"/>
		<path class="st1" d="M156.9,56.7c-0.9,0-1.6-0.3-2.1-0.8c-0.5-0.6-0.8-1.3-0.8-2.3c0-1,0.2-1.8,0.7-2.3s1.1-0.9,2-0.9
			c0.8,0,1.4,0.3,1.8,0.8s0.7,1.2,0.7,2v0.6h-4.2c0,0.7,0.2,1.3,0.5,1.6c0.3,0.4,0.8,0.6,1.5,0.6c0.7,0,1.3-0.1,2-0.4v0.8
			c-0.3,0.1-0.6,0.2-0.9,0.3C157.7,56.7,157.3,56.7,156.9,56.7z M156.6,51.2c-0.5,0-0.9,0.2-1.2,0.5c-0.3,0.3-0.5,0.8-0.5,1.3h3.2
			c0-0.6-0.1-1-0.4-1.3C157.5,51.3,157.1,51.2,156.6,51.2z"/>
		<path class="st1" d="M165.2,50.4c0.3,0,0.5,0,0.7,0.1l-0.1,0.9c-0.3-0.1-0.5-0.1-0.7-0.1c-0.5,0-0.9,0.2-1.3,0.6
			c-0.4,0.4-0.5,0.9-0.5,1.5v3.3h-0.9v-6.1h0.8l0.1,1.1h0c0.2-0.4,0.5-0.7,0.8-0.9C164.5,50.5,164.8,50.4,165.2,50.4z"/>
		<path class="st1" d="M178.2,54.4c0,0.7-0.3,1.3-0.8,1.7c-0.5,0.4-1.2,0.6-2.1,0.6c-1,0-1.7-0.1-2.2-0.4v-0.9
			c0.3,0.1,0.7,0.3,1.1,0.3c0.4,0.1,0.8,0.1,1.2,0.1c0.6,0,1.1-0.1,1.4-0.4c0.3-0.2,0.5-0.6,0.5-1c0-0.3-0.1-0.5-0.2-0.7
			c-0.1-0.2-0.3-0.3-0.6-0.5s-0.7-0.3-1.2-0.5c-0.8-0.3-1.3-0.6-1.6-1s-0.5-0.9-0.5-1.5c0-0.6,0.2-1.1,0.7-1.5
			c0.5-0.4,1.1-0.6,1.9-0.6c0.8,0,1.6,0.1,2.2,0.4l-0.3,0.8c-0.7-0.3-1.3-0.4-2-0.4c-0.5,0-0.9,0.1-1.2,0.3
			c-0.3,0.2-0.4,0.5-0.4,0.9c0,0.3,0.1,0.5,0.2,0.7c0.1,0.2,0.3,0.3,0.5,0.5s0.6,0.3,1.1,0.5c0.9,0.3,1.4,0.6,1.8,1
			C178.1,53.4,178.2,53.9,178.2,54.4z"/>
		<path class="st1" d="M186.8,53.6c0,1-0.3,1.8-0.8,2.3s-1.2,0.8-2.1,0.8c-0.5,0-1-0.1-1.5-0.4s-0.8-0.6-1-1.1
			c-0.2-0.5-0.3-1-0.3-1.7c0-1,0.2-1.8,0.7-2.3c0.5-0.6,1.2-0.8,2.1-0.8c0.9,0,1.5,0.3,2,0.9C186.5,51.8,186.8,52.6,186.8,53.6z
			 M182.1,53.6c0,0.8,0.2,1.4,0.5,1.8c0.3,0.4,0.8,0.6,1.4,0.6c0.6,0,1.1-0.2,1.4-0.6s0.5-1,0.5-1.8c0-0.8-0.2-1.4-0.5-1.8
			s-0.8-0.6-1.4-0.6c-0.6,0-1.1,0.2-1.4,0.6C182.3,52.2,182.1,52.8,182.1,53.6z"/>
		<path class="st1" d="M192.8,51.2h-1.6v5.4h-0.9v-5.4h-1.1v-0.4l1.1-0.3v-0.3c0-1.5,0.7-2.3,2-2.3c0.3,0,0.7,0.1,1.1,0.2l-0.2,0.7
			c-0.4-0.1-0.7-0.2-0.9-0.2c-0.3,0-0.6,0.1-0.8,0.3c-0.2,0.2-0.3,0.6-0.3,1.1v0.4h1.6V51.2z"/>
		<path class="st1" d="M197.7,56c0.2,0,0.3,0,0.5,0c0.2,0,0.3,0,0.4-0.1v0.7c-0.1,0-0.2,0.1-0.4,0.1c-0.2,0-0.4,0-0.5,0
			c-1.2,0-1.8-0.6-1.8-1.9v-3.6h-0.9v-0.4l0.9-0.4l0.4-1.3h0.5v1.4h1.8v0.7h-1.8v3.6c0,0.4,0.1,0.7,0.3,0.8
			C197.1,55.9,197.3,56,197.7,56z"/>
		<path class="st1" d="M206.4,56.6l-1.1-3.6c-0.1-0.2-0.2-0.7-0.4-1.5h0c-0.1,0.7-0.3,1.2-0.4,1.5l-1.2,3.6h-1.1l-1.7-6.1h1
			c0.4,1.5,0.7,2.7,0.9,3.5c0.2,0.8,0.3,1.3,0.4,1.6h0c0-0.2,0.1-0.5,0.2-0.8c0.1-0.3,0.2-0.6,0.2-0.8l1.1-3.5h1l1.1,3.5
			c0.2,0.6,0.3,1.2,0.4,1.6h0c0-0.1,0.1-0.3,0.1-0.6c0.1-0.3,0.5-1.8,1.2-4.5h1l-1.7,6.1H206.4z"/>
		<path class="st1" d="M215.8,56.6l-0.2-0.9h0c-0.3,0.4-0.6,0.6-0.9,0.8c-0.3,0.1-0.7,0.2-1.1,0.2c-0.6,0-1.1-0.2-1.4-0.5
			c-0.3-0.3-0.5-0.8-0.5-1.3c0-1.2,1-1.9,3-1.9l1,0v-0.4c0-0.5-0.1-0.8-0.3-1.1s-0.5-0.3-1-0.3c-0.5,0-1.1,0.2-1.7,0.5l-0.3-0.7
			c0.3-0.2,0.6-0.3,1-0.4s0.7-0.1,1.1-0.1c0.7,0,1.3,0.2,1.6,0.5c0.4,0.3,0.5,0.8,0.5,1.6v4.2H215.8z M213.7,56c0.6,0,1-0.2,1.4-0.5
			c0.3-0.3,0.5-0.8,0.5-1.3v-0.6l-0.9,0c-0.7,0-1.3,0.1-1.6,0.3c-0.3,0.2-0.5,0.5-0.5,0.9c0,0.3,0.1,0.6,0.3,0.8S213.3,56,213.7,56z
			"/>
		<path class="st1" d="M222.9,50.4c0.3,0,0.5,0,0.7,0.1l-0.1,0.9c-0.3-0.1-0.5-0.1-0.7-0.1c-0.5,0-0.9,0.2-1.3,0.6
			c-0.4,0.4-0.5,0.9-0.5,1.5v3.3h-0.9v-6.1h0.8l0.1,1.1h0c0.2-0.4,0.5-0.7,0.8-0.9C222.1,50.5,222.5,50.4,222.9,50.4z"/>
		<path class="st1" d="M229,56.7c-0.9,0-1.6-0.3-2.1-0.8c-0.5-0.6-0.8-1.3-0.8-2.3c0-1,0.2-1.8,0.7-2.3s1.1-0.9,2-0.9
			c0.8,0,1.4,0.3,1.8,0.8s0.7,1.2,0.7,2v0.6h-4.2c0,0.7,0.2,1.3,0.5,1.6c0.3,0.4,0.8,0.6,1.5,0.6c0.7,0,1.3-0.1,2-0.4v0.8
			c-0.3,0.1-0.6,0.2-0.9,0.3C229.8,56.7,229.5,56.7,229,56.7z M228.8,51.2c-0.5,0-0.9,0.2-1.2,0.5c-0.3,0.3-0.5,0.8-0.5,1.3h3.2
			c0-0.6-0.1-1-0.4-1.3C229.7,51.3,229.3,51.2,228.8,51.2z"/>
	</g>
</g>
</svg>
